<?xml version="1.0" encoding="UTF-8" standalone="no"?>
<svg width="154px" height="154px" viewBox="0 0 154 154" version="1.1" xmlns="http://www.w3.org/2000/svg" xmlns:xlink="http://www.w3.org/1999/xlink" xmlns:sketch="http://www.bohemiancoding.com/sketch/ns">
    <!-- Generator: Sketch 3.3.2 (12043) - http://www.bohemiancoding.com/sketch -->
    <title>heart3</title>
    <desc>Created with Sketch.</desc>
    <defs></defs>
    <g id="Page-1" stroke="none" stroke-width="1" fill="none" fill-rule="evenodd" sketch:type="MSPage">
        <g id="1-copy-3" sketch:type="MSArtboardGroup" transform="translate(-29.000000, -25.000000)">
            <g id="heart3" sketch:type="MSLayerGroup" transform="translate(31.000000, 27.000000)">
                <g id="Group" stroke="#477F75" stroke-width="4" sketch:type="MSShapeGroup">
                    <path d="M120,15 L150,15 L150,150 L0,150 L0,15 L30,15" id="Shape" fill="#FFFFFF"></path>
                    <path d="M45,15 L105,15 L45,15 Z M150,50 L0,50 L150,50 Z" id="Shape"></path>
                    <rect id="Rectangle-path" fill="#FFFFFF" x="30" y="0" width="15" height="30"></rect>
                    <rect id="Rectangle-path" fill="#FFFFFF" x="105" y="0" width="15" height="30"></rect>
                </g>
                <g id="Group" transform="translate(50.000000, 78.000000)" stroke="#C03B2C" stroke-width="2.08333333" fill="#E94F3D" sketch:type="MSShapeGroup">
                    <path d="M36.3333333,0 C31.5833333,0 27.4166667,2.4 25,6.12413793 C22.5833333,2.4 18.4166667,0 13.6666667,0 C6.08333333,0 0,6.12413793 0,13.737931 C0,27.3931034 25,48 25,48 C25,48 50,27.3931034 50,13.737931 C50,6.12413793 43.9166667,0 36.3333333,0 L36.3333333,0 Z" id="Shape"></path>
                </g>
            </g>
        </g>
    </g>
</svg>