<?xml version="1.0" encoding="UTF-8" standalone="no"?>
<svg width="154px" height="154px" viewBox="0 0 154 154" version="1.1" xmlns="http://www.w3.org/2000/svg" xmlns:xlink="http://www.w3.org/1999/xlink" xmlns:sketch="http://www.bohemiancoding.com/sketch/ns">
    <!-- Generator: Sketch 3.3.2 (12043) - http://www.bohemiancoding.com/sketch -->
    <title>heart2</title>
    <desc>Created with Sketch.</desc>
    <defs></defs>
    <g id="Page-1" stroke="none" stroke-width="1" fill="none" fill-rule="evenodd" sketch:type="MSPage">
        <g id="1-copy-2" sketch:type="MSArtboardGroup" transform="translate(-29.000000, -25.000000)">
            <g id="heart2" sketch:type="MSLayerGroup" transform="translate(31.000000, 27.000000)">
                <g id="Group" stroke="#477F75" stroke-width="4" sketch:type="MSShapeGroup">
                    <path d="M120,15 L150,15 L150,150 L0,150 L0,15 L30,15" id="Shape" fill="#FFFFFF"></path>
                    <path d="M45,15 L105,15 L45,15 Z M150,50 L0,50 L150,50 Z" id="Shape"></path>
                    <rect id="Rectangle-path" fill="#FFFFFF" x="30" y="0" width="15" height="30"></rect>
                    <rect id="Rectangle-path" fill="#FFFFFF" x="105" y="0" width="15" height="30"></rect>
                </g>
                <g id="Group" transform="translate(45.000000, 72.500000)" stroke="#C03B2C" stroke-width="2.5" fill="#E94F3D" sketch:type="MSShapeGroup">
                    <path d="M43.6,0 C37.9,0 32.9,2.875 30,7.3362069 C27.1,2.875 22.1,0 16.4,0 C7.3,0 0,7.3362069 0,16.4568966 C0,32.8146552 30,57.5 30,57.5 C30,57.5 60,32.8146552 60,16.4568966 C60,7.3362069 52.7,0 43.6,0 L43.6,0 Z" id="Shape"></path>
                </g>
            </g>
        </g>
    </g>
</svg>