<?xml version="1.0" encoding="UTF-8" standalone="no"?>
<svg width="146px" height="136px" viewBox="0 0 146 136" version="1.1" xmlns="http://www.w3.org/2000/svg" xmlns:xlink="http://www.w3.org/1999/xlink" xmlns:sketch="http://www.bohemiancoding.com/sketch/ns">
    <!-- Generator: Sketch 3.3.2 (12043) - http://www.bohemiancoding.com/sketch -->
    <title>Group Copy + Group</title>
    <desc>Created with Sketch.</desc>
    <defs></defs>
    <g id="Page-1" stroke="none" stroke-width="1" fill="none" fill-rule="evenodd" sketch:type="MSPage">
        <g id="1-copy-6" sketch:type="MSArtboardGroup" transform="translate(-45.000000, -34.000000)">
            <g id="Group-Copy-+-Group" sketch:type="MSLayerGroup" transform="translate(43.000000, 31.000000)">
                <g id="Group-Copy" transform="translate(83.709709, 82.459004) rotate(61.000000) translate(-83.709709, -82.459004) translate(48.635082, 26.133607)" sketch:type="MSShapeGroup">
                    <path d="M25.1957449,112.496729 L5.25553615,112.496729 C2.35298368,112.496729 2.12102309e-14,110.136874 2.12102309e-14,107.238016 L2.12102309e-14,6.00474539 C2.12102309e-14,3.10043804 2.36007383,0.746031746 5.25553615,0.746031746 L25.1957449,0.746031746 L25.1957449,0.746031746 C26.110034,5.24677201 30.0921803,8.63431629 34.8661249,8.63431629 C39.6400695,8.63431629 43.6222158,5.24677201 44.5365049,0.746031746 L64.4767136,0.746031746 C67.3792661,0.746031746 69.7322498,3.10588764 69.7322498,6.00474539 L69.7322498,107.238016 C69.7322498,110.142323 67.372176,112.496729 64.4767136,112.496729 L44.5365049,112.496729 C43.6222158,107.995989 39.6400695,104.608445 34.8661249,104.608445 C30.0921803,104.608445 26.110034,107.995989 25.1957449,112.496729 Z" id="Rectangle-3" stroke="#E94F3D" stroke-width="1.31694469" fill="#FFFFFF"></path>
                    <g id="Group" transform="translate(3.947108, 55.306666)" stroke="#979797" stroke-width="0.657102722" stroke-linecap="square">
                        <path d="M0.328925707,0.986035568 L10.1966969,0.986035568" id="Line"></path>
                        <path d="M17.1041367,0.986035568 L26.9719079,0.986035568" id="Line-2"></path>
                        <path d="M34.2082735,0.986035568 L44.0760447,0.986035568" id="Line-3"></path>
                        <path d="M51.6413359,0.986035568 L61.5091071,0.986035568" id="Line-4"></path>
                    </g>
                    <g id="noun_69935_cc" transform="translate(23.024799, 20.466743)" fill="#979797">
                        <path d="M7.4008284,7.88828454 L0.49338856,7.88828454 C0.221038075,7.88828454 0,7.66642654 0,7.39526676 L0,0.493017784 C0,0.221858003 0.221038075,0 0.49338856,0 L7.4008284,0 C7.67317888,0 7.89421696,0.221858003 7.89421696,0.493017784 L7.89421696,7.39526676 C7.89421696,7.66642654 7.67317888,7.88828454 7.4008284,7.88828454 L7.4008284,7.88828454 Z M0.98677712,6.90224897 L6.90743984,6.90224897 L6.90743984,0.986035568 L0.98677712,0.986035568 L0.98677712,6.90224897 L0.98677712,6.90224897 Z" id="Shape"></path>
                        <path d="M4.9338856,5.42319562 L2.96033136,5.42319562 C2.68798087,5.42319562 2.4669428,5.20133762 2.4669428,4.93017784 L2.4669428,2.9581067 C2.4669428,2.68694692 2.68798087,2.46508892 2.96033136,2.46508892 L4.9338856,2.46508892 C5.20623608,2.46508892 5.42727416,2.68694692 5.42727416,2.9581067 L5.42727416,4.93017784 C5.42727416,5.20133762 5.20623608,5.42319562 4.9338856,5.42319562 L4.9338856,5.42319562 Z M3.45371992,4.43716005 L4.44049704,4.43716005 L4.44049704,3.45112449 L3.45371992,3.45112449 L3.45371992,4.43716005 L3.45371992,4.43716005 Z" id="Shape"></path>
                        <path d="M4.9338856,21.1997647 L2.96033136,21.1997647 C2.68798087,21.1997647 2.4669428,20.9779067 2.4669428,20.7067469 L2.4669428,18.7346758 C2.4669428,18.463516 2.68798087,18.241658 2.96033136,18.241658 L4.9338856,18.241658 C5.20623608,18.241658 5.42727416,18.463516 5.42727416,18.7346758 L5.42727416,20.7067469 C5.42727416,20.9779067 5.20623608,21.1997647 4.9338856,21.1997647 L4.9338856,21.1997647 Z M3.45371992,20.2137291 L4.44049704,20.2137291 L4.44049704,19.2276936 L3.45371992,19.2276936 L3.45371992,20.2137291 L3.45371992,20.2137291 Z" id="Shape"></path>
                        <path d="M20.7223195,5.42319562 L18.7487653,5.42319562 C18.4774016,5.42319562 18.2553767,5.20133762 18.2553767,4.93017784 L18.2553767,2.9581067 C18.2553767,2.68694692 18.4774016,2.46508892 18.7487653,2.46508892 L20.7223195,2.46508892 C20.9936832,2.46508892 21.2157081,2.68694692 21.2157081,2.9581067 L21.2157081,4.93017784 C21.2157081,5.20133762 20.9936832,5.42319562 20.7223195,5.42319562 L20.7223195,5.42319562 Z M19.2421538,4.43716005 L20.228931,4.43716005 L20.228931,3.45112449 L19.2421538,3.45112449 L19.2421538,4.43716005 L19.2421538,4.43716005 Z" id="Shape"></path>
                        <path d="M23.1892623,7.88828454 L16.2818225,7.88828454 C16.0104588,7.88828454 15.7884339,7.66642654 15.7884339,7.39526676 L15.7884339,0.493017784 C15.7884339,0.221858003 16.0104588,0 16.2818225,0 L23.1892623,0 C23.460626,0 23.6826509,0.221858003 23.6826509,0.493017784 L23.6826509,7.39526676 C23.6826509,7.66642654 23.460626,7.88828454 23.1892623,7.88828454 L23.1892623,7.88828454 Z M16.775211,6.90224897 L22.6958738,6.90224897 L22.6958738,0.986035568 L16.775211,0.986035568 L16.775211,6.90224897 L16.775211,6.90224897 Z" id="Shape"></path>
                        <path d="M7.4008284,23.6648536 L0.49338856,23.6648536 C0.221038075,23.6648536 0,23.4429956 0,23.1718358 L0,16.2695869 C0,15.9984271 0.221038075,15.7765691 0.49338856,15.7765691 L7.4008284,15.7765691 C7.67317888,15.7765691 7.89421696,15.9984271 7.89421696,16.2695869 L7.89421696,23.1718358 C7.89421696,23.4429956 7.67317888,23.6648536 7.4008284,23.6648536 L7.4008284,23.6648536 Z M0.98677712,22.6788181 L6.90743984,22.6788181 L6.90743984,16.7626047 L0.98677712,16.7626047 L0.98677712,22.6788181 L0.98677712,22.6788181 Z" id="Shape"></path>
                        <path d="M7.4008284,11.339409 C7.12847791,11.339409 6.90743984,11.117551 6.90743984,10.8463912 L6.90743984,9.86035568 L0.98677712,9.86035568 C0.714426635,9.86035568 0.49338856,9.63849767 0.49338856,9.36733789 C0.49338856,9.09617811 0.714426635,8.87432011 0.98677712,8.87432011 L7.4008284,8.87432011 C7.67317888,8.87432011 7.89421696,9.09617811 7.89421696,9.36733789 L7.89421696,10.8463912 C7.89421696,11.117551 7.67317888,11.339409 7.4008284,11.339409 L7.4008284,11.339409 Z" id="Shape"></path>
                        <path d="M6.90743984,14.7905335 L0.49338856,14.7905335 C0.221038075,14.7905335 0,14.5686755 0,14.2975157 L0,12.8184624 C0,12.5473026 0.221038075,12.3254446 0.49338856,12.3254446 C0.765739045,12.3254446 0.98677712,12.5473026 0.98677712,12.8184624 L0.98677712,13.8044979 L6.90743984,13.8044979 C7.17979032,13.8044979 7.4008284,14.026356 7.4008284,14.2975157 C7.4008284,14.5686755 7.17979032,14.7905335 6.90743984,14.7905335 L6.90743984,14.7905335 Z" id="Shape"></path>
                        <path d="M23.1892623,23.6648536 L21.7090966,23.6648536 C21.4377329,23.6648536 21.2157081,23.4429956 21.2157081,23.1718358 C21.2157081,22.9006761 21.4377329,22.6788181 21.7090966,22.6788181 L22.6958738,22.6788181 L22.6958738,16.7626047 C22.6958738,16.4914449 22.9178986,16.2695869 23.1892623,16.2695869 C23.460626,16.2695869 23.6826509,16.4914449 23.6826509,16.7626047 L23.6826509,23.1718358 C23.6826509,23.4429956 23.460626,23.6648536 23.1892623,23.6648536 L23.1892623,23.6648536 Z" id="Shape"></path>
                        <path d="M9.37438264,23.1718358 C9.10203215,23.1718358 8.88099408,22.9499778 8.88099408,22.6788181 L8.88099408,16.2695869 C8.88099408,15.9984271 9.10203215,15.7765691 9.37438264,15.7765691 L10.8545483,15.7765691 C11.1268988,15.7765691 11.3479369,15.9984271 11.3479369,16.2695869 C11.3479369,16.5407466 11.1268988,16.7626047 10.8545483,16.7626047 L9.8677712,16.7626047 L9.8677712,22.6788181 C9.8677712,22.9499778 9.64673312,23.1718358 9.37438264,23.1718358 L9.37438264,23.1718358 Z" id="Shape"></path>
                        <path d="M18.7487653,23.6648536 L12.8281026,23.6648536 C12.5567388,23.6648536 12.334714,23.4429956 12.334714,23.1718358 C12.334714,22.9006761 12.5567388,22.6788181 12.8281026,22.6788181 L18.7487653,22.6788181 C19.020129,22.6788181 19.2421538,22.9006761 19.2421538,23.1718358 C19.2421538,23.4429956 19.020129,23.6648536 18.7487653,23.6648536 L18.7487653,23.6648536 Z" id="Shape"></path>
                        <path d="M14.8016568,21.6927825 L11.8413254,21.6927825 C11.568975,21.6927825 11.3479369,21.4709245 11.3479369,21.1997647 C11.3479369,20.9286049 11.568975,20.7067469 11.8413254,20.7067469 L14.8016568,20.7067469 C15.0730205,20.7067469 15.2950454,20.9286049 15.2950454,21.1997647 C15.2950454,21.4709245 15.0730205,21.6927825 14.8016568,21.6927825 L14.8016568,21.6927825 Z" id="Shape"></path>
                        <path d="M20.7223195,21.6927825 L17.7619882,21.6927825 C17.4906244,21.6927825 17.2685996,21.4709245 17.2685996,21.1997647 C17.2685996,20.9286049 17.4906244,20.7067469 17.7619882,20.7067469 L20.7223195,20.7067469 C20.9936832,20.7067469 21.2157081,20.9286049 21.2157081,21.1997647 C21.2157081,21.4709245 20.9936832,21.6927825 20.7223195,21.6927825 L20.7223195,21.6927825 Z" id="Shape"></path>
                        <path d="M20.7223195,16.7626047 L18.7487653,16.7626047 C18.4774016,16.7626047 18.2553767,16.5407466 18.2553767,16.2695869 C18.2553767,15.9984271 18.4774016,15.7765691 18.7487653,15.7765691 L20.7223195,15.7765691 C20.9936832,15.7765691 21.2157081,15.9984271 21.2157081,16.2695869 C21.2157081,16.5407466 20.9936832,16.7626047 20.7223195,16.7626047 L20.7223195,16.7626047 Z" id="Shape"></path>
                        <path d="M16.775211,16.7626047 L15.7884339,16.7626047 C15.5170702,16.7626047 15.2950454,16.5407466 15.2950454,16.2695869 C15.2950454,15.9984271 15.5170702,15.7765691 15.7884339,15.7765691 L16.775211,15.7765691 C17.0465747,15.7765691 17.2685996,15.9984271 17.2685996,16.2695869 C17.2685996,16.5407466 17.0465747,16.7626047 16.775211,16.7626047 L16.775211,16.7626047 Z" id="Shape"></path>
                        <path d="M13.8148797,16.7626047 L12.8281026,16.7626047 C12.5567388,16.7626047 12.334714,16.5407466 12.334714,16.2695869 C12.334714,15.9984271 12.5567388,15.7765691 12.8281026,15.7765691 L13.8148797,15.7765691 C14.0862434,15.7765691 14.3082682,15.9984271 14.3082682,16.2695869 C14.3082682,16.5407466 14.0862434,16.7626047 13.8148797,16.7626047 L13.8148797,16.7626047 Z" id="Shape"></path>
                        <path d="M11.3479369,20.2137291 C11.0755864,20.2137291 10.8545483,19.9918711 10.8545483,19.7207114 L10.8545483,17.7486402 C10.8545483,17.4774804 11.0755864,17.2556224 11.3479369,17.2556224 C11.6202874,17.2556224 11.8413254,17.4774804 11.8413254,17.7486402 L11.8413254,19.7207114 C11.8413254,19.9918711 11.6202874,20.2137291 11.3479369,20.2137291 L11.3479369,20.2137291 Z" id="Shape"></path>
                        <path d="M16.2818225,20.2137291 C16.0104588,20.2137291 15.7884339,19.9918711 15.7884339,19.7207114 L15.7884339,17.7486402 C15.7884339,17.4774804 16.0104588,17.2556224 16.2818225,17.2556224 C16.5531862,17.2556224 16.775211,17.4774804 16.775211,17.7486402 L16.775211,19.7207114 C16.775211,19.9918711 16.5531862,20.2137291 16.2818225,20.2137291 L16.2818225,20.2137291 Z" id="Shape"></path>
                        <path d="M18.2553767,20.2137291 C17.984013,20.2137291 17.7619882,19.9918711 17.7619882,19.7207114 L17.7619882,17.7486402 C17.7619882,17.4774804 17.984013,17.2556224 18.2553767,17.2556224 C18.5267404,17.2556224 18.7487653,17.4774804 18.7487653,17.7486402 L18.7487653,19.7207114 C18.7487653,19.9918711 18.5267404,20.2137291 18.2553767,20.2137291 L18.2553767,20.2137291 Z" id="Shape"></path>
                        <path d="M21.2157081,20.2137291 C20.9443444,20.2137291 20.7223195,19.9918711 20.7223195,19.7207114 L20.7223195,17.7486402 C20.7223195,17.4774804 20.9443444,17.2556224 21.2157081,17.2556224 C21.4870718,17.2556224 21.7090966,17.4774804 21.7090966,17.7486402 L21.7090966,19.7207114 C21.7090966,19.9918711 21.4870718,20.2137291 21.2157081,20.2137291 L21.2157081,20.2137291 Z" id="Shape"></path>
                        <path d="M2.96033136,11.8324268 L1.97355424,11.8324268 C1.70120375,11.8324268 1.48016568,11.6105688 1.48016568,11.339409 C1.48016568,11.0682492 1.70120375,10.8463912 1.97355424,10.8463912 L2.96033136,10.8463912 C3.23268184,10.8463912 3.45371992,11.0682492 3.45371992,11.339409 C3.45371992,11.6105688 3.23268184,11.8324268 2.96033136,11.8324268 L2.96033136,11.8324268 Z" id="Shape"></path>
                        <path d="M5.92066272,12.8184624 L4.9338856,12.8184624 C4.66153511,12.8184624 4.44049704,12.5966044 4.44049704,12.3254446 C4.44049704,12.0542848 4.66153511,11.8324268 4.9338856,11.8324268 L5.92066272,11.8324268 C6.1930132,11.8324268 6.41405128,12.0542848 6.41405128,12.3254446 C6.41405128,12.5966044 6.1930132,12.8184624 5.92066272,12.8184624 L5.92066272,12.8184624 Z" id="Shape"></path>
                        <path d="M22.6958738,14.7905335 L15.7884339,14.7905335 C15.5170702,14.7905335 15.2950454,14.5686755 15.2950454,14.2975157 C15.2950454,14.026356 15.5170702,13.8044979 15.7884339,13.8044979 L22.6958738,13.8044979 C22.9672375,13.8044979 23.1892623,14.026356 23.1892623,14.2975157 C23.1892623,14.5686755 22.9672375,14.7905335 22.6958738,14.7905335 L22.6958738,14.7905335 Z" id="Shape"></path>
                        <path d="M22.6958738,9.86035568 L15.7884339,9.86035568 C15.5170702,9.86035568 15.2950454,9.63849767 15.2950454,9.36733789 C15.2950454,9.09617811 15.5170702,8.87432011 15.7884339,8.87432011 L22.6958738,8.87432011 C22.9672375,8.87432011 23.1892623,9.09617811 23.1892623,9.36733789 C23.1892623,9.63849767 22.9672375,9.86035568 22.6958738,9.86035568 L22.6958738,9.86035568 Z" id="Shape"></path>
                        <path d="M13.8148797,0.986035568 L9.8677712,0.986035568 C9.59542071,0.986035568 9.37438264,0.764177565 9.37438264,0.493017784 C9.37438264,0.221858003 9.59542071,0 9.8677712,0 L13.8148797,0 C14.0862434,0 14.3082682,0.221858003 14.3082682,0.493017784 C14.3082682,0.764177565 14.0862434,0.986035568 13.8148797,0.986035568 L13.8148797,0.986035568 Z" id="Shape"></path>
                        <path d="M9.37438264,7.39526676 C9.10203215,7.39526676 8.88099408,7.17340876 8.88099408,6.90224897 L8.88099408,1.97207114 C8.88099408,1.70091135 9.10203215,1.47905335 9.37438264,1.47905335 C9.64673312,1.47905335 9.8677712,1.70091135 9.8677712,1.97207114 L9.8677712,6.90224897 C9.8677712,7.17340876 9.64673312,7.39526676 9.37438264,7.39526676 L9.37438264,7.39526676 Z" id="Shape"></path>
                        <path d="M11.3479369,3.45112449 C11.0755864,3.45112449 10.8545483,3.22926648 10.8545483,2.9581067 L10.8545483,1.97207114 C10.8545483,1.70091135 11.0755864,1.47905335 11.3479369,1.47905335 C11.6202874,1.47905335 11.8413254,1.70091135 11.8413254,1.97207114 L11.8413254,2.9581067 C11.8413254,3.22926648 11.6202874,3.45112449 11.3479369,3.45112449 L11.3479369,3.45112449 Z" id="Shape"></path>
                        <path d="M12.334714,7.39526676 C12.0623635,7.39526676 11.8413254,7.17340876 11.8413254,6.90224897 L11.8413254,5.91621341 C11.8413254,5.64505363 12.0623635,5.42319562 12.334714,5.42319562 C12.6060777,5.42319562 12.8281026,5.64505363 12.8281026,5.91621341 L12.8281026,6.90224897 C12.8281026,7.17340876 12.6060777,7.39526676 12.334714,7.39526676 L12.334714,7.39526676 Z" id="Shape"></path>
                        <path d="M14.3082682,6.40923119 C14.0369045,6.40923119 13.8148797,6.18737319 13.8148797,5.91621341 L13.8148797,1.97207114 C13.8148797,1.70091135 14.0369045,1.47905335 14.3082682,1.47905335 C14.5796319,1.47905335 14.8016568,1.70091135 14.8016568,1.97207114 L14.8016568,5.91621341 C14.8016568,6.18737319 14.5796319,6.40923119 14.3082682,6.40923119 L14.3082682,6.40923119 Z" id="Shape"></path>
                        <path d="M19.2421538,14.2975157 C18.9707901,14.2975157 18.7487653,14.0756577 18.7487653,13.8044979 L18.7487653,11.8324268 C18.7487653,11.561267 18.9707901,11.339409 19.2421538,11.339409 C19.5135175,11.339409 19.7355424,11.561267 19.7355424,11.8324268 L19.7355424,13.8044979 C19.7355424,14.0756577 19.5135175,14.2975157 19.2421538,14.2975157 L19.2421538,14.2975157 Z" id="Shape"></path>
                        <path d="M23.1892623,13.3114802 C22.9178986,13.3114802 22.6958738,13.0896222 22.6958738,12.8184624 L22.6958738,10.8463912 C22.6958738,10.5752315 22.9178986,10.3533735 23.1892623,10.3533735 C23.460626,10.3533735 23.6826509,10.5752315 23.6826509,10.8463912 L23.6826509,12.8184624 C23.6826509,13.0896222 23.460626,13.3114802 23.1892623,13.3114802 L23.1892623,13.3114802 Z" id="Shape"></path>
                        <path d="M15.2950454,13.3114802 C15.0236816,13.3114802 14.8016568,13.0896222 14.8016568,12.8184624 L14.8016568,10.8463912 C14.8016568,10.5752315 15.0236816,10.3533735 15.2950454,10.3533735 C15.5664091,10.3533735 15.7884339,10.5752315 15.7884339,10.8463912 L15.7884339,12.8184624 C15.7884339,13.0896222 15.5664091,13.3114802 15.2950454,13.3114802 L15.2950454,13.3114802 Z" id="Shape"></path>
                        <path d="M17.2685996,13.3114802 C16.9972359,13.3114802 16.775211,13.0896222 16.775211,12.8184624 L16.775211,10.8463912 C16.775211,10.5752315 16.9972359,10.3533735 17.2685996,10.3533735 C17.5399633,10.3533735 17.7619882,10.5752315 17.7619882,10.8463912 L17.7619882,12.8184624 C17.7619882,13.0896222 17.5399633,13.3114802 17.2685996,13.3114802 L17.2685996,13.3114802 Z" id="Shape"></path>
                        <path d="M9.37438264,14.2975157 C9.10203215,14.2975157 8.88099408,14.0756577 8.88099408,13.8044979 L8.88099408,8.87432011 C8.88099408,8.60316033 9.10203215,8.38130233 9.37438264,8.38130233 C9.64673312,8.38130233 9.8677712,8.60316033 9.8677712,8.87432011 L9.8677712,13.8044979 C9.8677712,14.0756577 9.64673312,14.2975157 9.37438264,14.2975157 L9.37438264,14.2975157 Z" id="Shape"></path>
                        <path d="M10.8545483,10.8463912 L9.8677712,10.8463912 C9.59542071,10.8463912 9.37438264,10.6245332 9.37438264,10.3533735 C9.37438264,10.0822137 9.59542071,9.86035568 9.8677712,9.86035568 L10.8545483,9.86035568 C11.1268988,9.86035568 11.3479369,10.0822137 11.3479369,10.3533735 C11.3479369,10.6245332 11.1268988,10.8463912 10.8545483,10.8463912 L10.8545483,10.8463912 Z" id="Shape"></path>
                        <path d="M13.3214911,14.2975157 C13.0501274,14.2975157 12.8281026,14.0756577 12.8281026,13.8044979 L12.8281026,8.87432011 C12.8281026,8.60316033 13.0501274,8.38130233 13.3214911,8.38130233 C13.5928548,8.38130233 13.8148797,8.60316033 13.8148797,8.87432011 L13.8148797,13.8044979 C13.8148797,14.0756577 13.5928548,14.2975157 13.3214911,14.2975157 L13.3214911,14.2975157 Z" id="Shape"></path>
                        <path d="M12.8281026,12.8184624 L11.8413254,12.8184624 C11.568975,12.8184624 11.3479369,12.5966044 11.3479369,12.3254446 C11.3479369,12.0542848 11.568975,11.8324268 11.8413254,11.8324268 L12.8281026,11.8324268 C13.0994663,11.8324268 13.3214911,12.0542848 13.3214911,12.3254446 C13.3214911,12.5966044 13.0994663,12.8184624 12.8281026,12.8184624 L12.8281026,12.8184624 Z" id="Shape"></path>
                    </g>
                    <path d="M39.4605597,76.139625 C39.1412808,75.7977976 38.753591,75.5186428 38.2974784,75.3021521 C37.8413658,75.0856614 37.3282468,74.9774177 36.7581061,74.9774177 C36.2335766,74.9774177 35.7717695,75.1312377 35.372671,75.4388824 C34.9735725,75.746527 34.7740262,76.1965929 34.7740262,76.7890937 C34.7740262,77.267652 34.9222606,77.6379595 35.2187338,77.9000271 C35.5152069,78.1620948 36.0283259,78.4754318 36.7581061,78.8400477 C37.2370243,79.0907211 37.69313,79.3641789 38.126437,79.6604293 C38.559744,79.9566797 38.9417325,80.2985019 39.2724142,80.6859063 C39.6030958,81.0733106 39.8710579,81.5176796 40.0763086,82.0190264 C40.2815593,82.5203732 40.384183,83.0786829 40.384183,83.6939721 C40.384183,84.8561852 40.1732341,85.8417727 39.75133,86.6507641 C39.3294258,87.4597556 38.7935016,88.1149149 38.1435411,88.6162617 C37.4935807,89.1176085 36.7695128,89.4765219 35.9713158,89.6930125 C35.1731187,89.9095032 34.397739,90.0177469 33.6451532,90.0177469 C32.4820661,90.0177469 31.3760096,89.8126536 30.3269506,89.4024607 C29.2778917,88.9922679 28.4226934,88.4453523 27.7613301,87.7616975 L30.5322003,84.5485363 C30.9427016,85.0043061 31.4159113,85.3746135 31.9518436,85.6594697 C32.4877759,85.9443258 33.0522068,86.0867518 33.6451532,86.0867518 C34.1924883,86.0867518 34.6713993,85.9272347 35.0819007,85.6081958 C35.492402,85.289157 35.6976496,84.833394 35.6976496,84.2408932 C35.6976496,83.7167579 35.492402,83.278086 35.0819007,82.9248644 C34.6713993,82.5716428 34.1012671,82.2127294 33.371487,81.8481135 C32.9153744,81.6430171 32.4934766,81.4037415 32.1057809,81.1302797 C31.7180852,80.8568178 31.3760058,80.5377837 31.0795327,80.1731678 C30.7830595,79.8085519 30.5493053,79.3926682 30.3782631,78.9255041 C30.2072208,78.45834 30.121701,77.9171215 30.121701,77.3018322 C30.121701,76.2079846 30.3326499,75.2679735 30.7545541,74.4817705 C31.1764582,73.6955675 31.7180838,73.0574993 32.3794471,72.5675468 C33.0408103,72.0775942 33.7762808,71.7186809 34.5858807,71.4907959 C35.3954805,71.262911 36.1879643,71.1489703 36.9633557,71.1489703 C38.0124147,71.1489703 38.9873407,71.3084873 39.8881631,71.6275262 C40.7889855,71.9465651 41.5130533,72.3681459 42.0603884,72.8922812 L39.4605597,76.139625 Z" id="s" fill="#76B9AD"></path>
                </g>
                <g id="Group" transform="translate(63.560455, 66.046305) rotate(40.000000) translate(-63.560455, -66.046305) translate(28.485828, 9.720908)" sketch:type="MSShapeGroup">
                    <path d="M25.1957449,112.496729 L5.25553615,112.496729 C2.35298368,112.496729 2.12102309e-14,110.136874 2.12102309e-14,107.238016 L2.12102309e-14,6.00474539 C2.12102309e-14,3.10043804 2.36007383,0.746031746 5.25553615,0.746031746 L25.1957449,0.746031746 L25.1957449,0.746031746 C26.110034,5.24677201 30.0921803,8.63431629 34.8661249,8.63431629 C39.6400695,8.63431629 43.6222158,5.24677201 44.5365049,0.746031746 L64.4767136,0.746031746 C67.3792661,0.746031746 69.7322498,3.10588764 69.7322498,6.00474539 L69.7322498,107.238016 C69.7322498,110.142323 67.372176,112.496729 64.4767136,112.496729 L44.5365049,112.496729 C43.6222158,107.995989 39.6400695,104.608445 34.8661249,104.608445 C30.0921803,104.608445 26.110034,107.995989 25.1957449,112.496729 Z" id="Rectangle-3" stroke="#E94F3D" stroke-width="1.31694469" fill="#FFFFFF"></path>
                    <g transform="translate(3.947108, 55.306666)" stroke="#979797" stroke-width="0.657102722" stroke-linecap="square">
                        <path d="M0.328925707,0.986035568 L10.1966969,0.986035568" id="Line"></path>
                        <path d="M17.1041367,0.986035568 L26.9719079,0.986035568" id="Line-2"></path>
                        <path d="M34.2082735,0.986035568 L44.0760447,0.986035568" id="Line-3"></path>
                        <path d="M51.6413359,0.986035568 L61.5091071,0.986035568" id="Line-4"></path>
                    </g>
                    <g id="noun_69935_cc" transform="translate(23.024799, 20.466743)" fill="#979797">
                        <path d="M7.4008284,7.88828454 L0.49338856,7.88828454 C0.221038075,7.88828454 0,7.66642654 0,7.39526676 L0,0.493017784 C0,0.221858003 0.221038075,0 0.49338856,0 L7.4008284,0 C7.67317888,0 7.89421696,0.221858003 7.89421696,0.493017784 L7.89421696,7.39526676 C7.89421696,7.66642654 7.67317888,7.88828454 7.4008284,7.88828454 L7.4008284,7.88828454 Z M0.98677712,6.90224897 L6.90743984,6.90224897 L6.90743984,0.986035568 L0.98677712,0.986035568 L0.98677712,6.90224897 L0.98677712,6.90224897 Z" id="Shape"></path>
                        <path d="M4.9338856,5.42319562 L2.96033136,5.42319562 C2.68798087,5.42319562 2.4669428,5.20133762 2.4669428,4.93017784 L2.4669428,2.9581067 C2.4669428,2.68694692 2.68798087,2.46508892 2.96033136,2.46508892 L4.9338856,2.46508892 C5.20623608,2.46508892 5.42727416,2.68694692 5.42727416,2.9581067 L5.42727416,4.93017784 C5.42727416,5.20133762 5.20623608,5.42319562 4.9338856,5.42319562 L4.9338856,5.42319562 Z M3.45371992,4.43716005 L4.44049704,4.43716005 L4.44049704,3.45112449 L3.45371992,3.45112449 L3.45371992,4.43716005 L3.45371992,4.43716005 Z" id="Shape"></path>
                        <path d="M4.9338856,21.1997647 L2.96033136,21.1997647 C2.68798087,21.1997647 2.4669428,20.9779067 2.4669428,20.7067469 L2.4669428,18.7346758 C2.4669428,18.463516 2.68798087,18.241658 2.96033136,18.241658 L4.9338856,18.241658 C5.20623608,18.241658 5.42727416,18.463516 5.42727416,18.7346758 L5.42727416,20.7067469 C5.42727416,20.9779067 5.20623608,21.1997647 4.9338856,21.1997647 L4.9338856,21.1997647 Z M3.45371992,20.2137291 L4.44049704,20.2137291 L4.44049704,19.2276936 L3.45371992,19.2276936 L3.45371992,20.2137291 L3.45371992,20.2137291 Z" id="Shape"></path>
                        <path d="M20.7223195,5.42319562 L18.7487653,5.42319562 C18.4774016,5.42319562 18.2553767,5.20133762 18.2553767,4.93017784 L18.2553767,2.9581067 C18.2553767,2.68694692 18.4774016,2.46508892 18.7487653,2.46508892 L20.7223195,2.46508892 C20.9936832,2.46508892 21.2157081,2.68694692 21.2157081,2.9581067 L21.2157081,4.93017784 C21.2157081,5.20133762 20.9936832,5.42319562 20.7223195,5.42319562 L20.7223195,5.42319562 Z M19.2421538,4.43716005 L20.228931,4.43716005 L20.228931,3.45112449 L19.2421538,3.45112449 L19.2421538,4.43716005 L19.2421538,4.43716005 Z" id="Shape"></path>
                        <path d="M23.1892623,7.88828454 L16.2818225,7.88828454 C16.0104588,7.88828454 15.7884339,7.66642654 15.7884339,7.39526676 L15.7884339,0.493017784 C15.7884339,0.221858003 16.0104588,0 16.2818225,0 L23.1892623,0 C23.460626,0 23.6826509,0.221858003 23.6826509,0.493017784 L23.6826509,7.39526676 C23.6826509,7.66642654 23.460626,7.88828454 23.1892623,7.88828454 L23.1892623,7.88828454 Z M16.775211,6.90224897 L22.6958738,6.90224897 L22.6958738,0.986035568 L16.775211,0.986035568 L16.775211,6.90224897 L16.775211,6.90224897 Z" id="Shape"></path>
                        <path d="M7.4008284,23.6648536 L0.49338856,23.6648536 C0.221038075,23.6648536 0,23.4429956 0,23.1718358 L0,16.2695869 C0,15.9984271 0.221038075,15.7765691 0.49338856,15.7765691 L7.4008284,15.7765691 C7.67317888,15.7765691 7.89421696,15.9984271 7.89421696,16.2695869 L7.89421696,23.1718358 C7.89421696,23.4429956 7.67317888,23.6648536 7.4008284,23.6648536 L7.4008284,23.6648536 Z M0.98677712,22.6788181 L6.90743984,22.6788181 L6.90743984,16.7626047 L0.98677712,16.7626047 L0.98677712,22.6788181 L0.98677712,22.6788181 Z" id="Shape"></path>
                        <path d="M7.4008284,11.339409 C7.12847791,11.339409 6.90743984,11.117551 6.90743984,10.8463912 L6.90743984,9.86035568 L0.98677712,9.86035568 C0.714426635,9.86035568 0.49338856,9.63849767 0.49338856,9.36733789 C0.49338856,9.09617811 0.714426635,8.87432011 0.98677712,8.87432011 L7.4008284,8.87432011 C7.67317888,8.87432011 7.89421696,9.09617811 7.89421696,9.36733789 L7.89421696,10.8463912 C7.89421696,11.117551 7.67317888,11.339409 7.4008284,11.339409 L7.4008284,11.339409 Z" id="Shape"></path>
                        <path d="M6.90743984,14.7905335 L0.49338856,14.7905335 C0.221038075,14.7905335 0,14.5686755 0,14.2975157 L0,12.8184624 C0,12.5473026 0.221038075,12.3254446 0.49338856,12.3254446 C0.765739045,12.3254446 0.98677712,12.5473026 0.98677712,12.8184624 L0.98677712,13.8044979 L6.90743984,13.8044979 C7.17979032,13.8044979 7.4008284,14.026356 7.4008284,14.2975157 C7.4008284,14.5686755 7.17979032,14.7905335 6.90743984,14.7905335 L6.90743984,14.7905335 Z" id="Shape"></path>
                        <path d="M23.1892623,23.6648536 L21.7090966,23.6648536 C21.4377329,23.6648536 21.2157081,23.4429956 21.2157081,23.1718358 C21.2157081,22.9006761 21.4377329,22.6788181 21.7090966,22.6788181 L22.6958738,22.6788181 L22.6958738,16.7626047 C22.6958738,16.4914449 22.9178986,16.2695869 23.1892623,16.2695869 C23.460626,16.2695869 23.6826509,16.4914449 23.6826509,16.7626047 L23.6826509,23.1718358 C23.6826509,23.4429956 23.460626,23.6648536 23.1892623,23.6648536 L23.1892623,23.6648536 Z" id="Shape"></path>
                        <path d="M9.37438264,23.1718358 C9.10203215,23.1718358 8.88099408,22.9499778 8.88099408,22.6788181 L8.88099408,16.2695869 C8.88099408,15.9984271 9.10203215,15.7765691 9.37438264,15.7765691 L10.8545483,15.7765691 C11.1268988,15.7765691 11.3479369,15.9984271 11.3479369,16.2695869 C11.3479369,16.5407466 11.1268988,16.7626047 10.8545483,16.7626047 L9.8677712,16.7626047 L9.8677712,22.6788181 C9.8677712,22.9499778 9.64673312,23.1718358 9.37438264,23.1718358 L9.37438264,23.1718358 Z" id="Shape"></path>
                        <path d="M18.7487653,23.6648536 L12.8281026,23.6648536 C12.5567388,23.6648536 12.334714,23.4429956 12.334714,23.1718358 C12.334714,22.9006761 12.5567388,22.6788181 12.8281026,22.6788181 L18.7487653,22.6788181 C19.020129,22.6788181 19.2421538,22.9006761 19.2421538,23.1718358 C19.2421538,23.4429956 19.020129,23.6648536 18.7487653,23.6648536 L18.7487653,23.6648536 Z" id="Shape"></path>
                        <path d="M14.8016568,21.6927825 L11.8413254,21.6927825 C11.568975,21.6927825 11.3479369,21.4709245 11.3479369,21.1997647 C11.3479369,20.9286049 11.568975,20.7067469 11.8413254,20.7067469 L14.8016568,20.7067469 C15.0730205,20.7067469 15.2950454,20.9286049 15.2950454,21.1997647 C15.2950454,21.4709245 15.0730205,21.6927825 14.8016568,21.6927825 L14.8016568,21.6927825 Z" id="Shape"></path>
                        <path d="M20.7223195,21.6927825 L17.7619882,21.6927825 C17.4906244,21.6927825 17.2685996,21.4709245 17.2685996,21.1997647 C17.2685996,20.9286049 17.4906244,20.7067469 17.7619882,20.7067469 L20.7223195,20.7067469 C20.9936832,20.7067469 21.2157081,20.9286049 21.2157081,21.1997647 C21.2157081,21.4709245 20.9936832,21.6927825 20.7223195,21.6927825 L20.7223195,21.6927825 Z" id="Shape"></path>
                        <path d="M20.7223195,16.7626047 L18.7487653,16.7626047 C18.4774016,16.7626047 18.2553767,16.5407466 18.2553767,16.2695869 C18.2553767,15.9984271 18.4774016,15.7765691 18.7487653,15.7765691 L20.7223195,15.7765691 C20.9936832,15.7765691 21.2157081,15.9984271 21.2157081,16.2695869 C21.2157081,16.5407466 20.9936832,16.7626047 20.7223195,16.7626047 L20.7223195,16.7626047 Z" id="Shape"></path>
                        <path d="M16.775211,16.7626047 L15.7884339,16.7626047 C15.5170702,16.7626047 15.2950454,16.5407466 15.2950454,16.2695869 C15.2950454,15.9984271 15.5170702,15.7765691 15.7884339,15.7765691 L16.775211,15.7765691 C17.0465747,15.7765691 17.2685996,15.9984271 17.2685996,16.2695869 C17.2685996,16.5407466 17.0465747,16.7626047 16.775211,16.7626047 L16.775211,16.7626047 Z" id="Shape"></path>
                        <path d="M13.8148797,16.7626047 L12.8281026,16.7626047 C12.5567388,16.7626047 12.334714,16.5407466 12.334714,16.2695869 C12.334714,15.9984271 12.5567388,15.7765691 12.8281026,15.7765691 L13.8148797,15.7765691 C14.0862434,15.7765691 14.3082682,15.9984271 14.3082682,16.2695869 C14.3082682,16.5407466 14.0862434,16.7626047 13.8148797,16.7626047 L13.8148797,16.7626047 Z" id="Shape"></path>
                        <path d="M11.3479369,20.2137291 C11.0755864,20.2137291 10.8545483,19.9918711 10.8545483,19.7207114 L10.8545483,17.7486402 C10.8545483,17.4774804 11.0755864,17.2556224 11.3479369,17.2556224 C11.6202874,17.2556224 11.8413254,17.4774804 11.8413254,17.7486402 L11.8413254,19.7207114 C11.8413254,19.9918711 11.6202874,20.2137291 11.3479369,20.2137291 L11.3479369,20.2137291 Z" id="Shape"></path>
                        <path d="M16.2818225,20.2137291 C16.0104588,20.2137291 15.7884339,19.9918711 15.7884339,19.7207114 L15.7884339,17.7486402 C15.7884339,17.4774804 16.0104588,17.2556224 16.2818225,17.2556224 C16.5531862,17.2556224 16.775211,17.4774804 16.775211,17.7486402 L16.775211,19.7207114 C16.775211,19.9918711 16.5531862,20.2137291 16.2818225,20.2137291 L16.2818225,20.2137291 Z" id="Shape"></path>
                        <path d="M18.2553767,20.2137291 C17.984013,20.2137291 17.7619882,19.9918711 17.7619882,19.7207114 L17.7619882,17.7486402 C17.7619882,17.4774804 17.984013,17.2556224 18.2553767,17.2556224 C18.5267404,17.2556224 18.7487653,17.4774804 18.7487653,17.7486402 L18.7487653,19.7207114 C18.7487653,19.9918711 18.5267404,20.2137291 18.2553767,20.2137291 L18.2553767,20.2137291 Z" id="Shape"></path>
                        <path d="M21.2157081,20.2137291 C20.9443444,20.2137291 20.7223195,19.9918711 20.7223195,19.7207114 L20.7223195,17.7486402 C20.7223195,17.4774804 20.9443444,17.2556224 21.2157081,17.2556224 C21.4870718,17.2556224 21.7090966,17.4774804 21.7090966,17.7486402 L21.7090966,19.7207114 C21.7090966,19.9918711 21.4870718,20.2137291 21.2157081,20.2137291 L21.2157081,20.2137291 Z" id="Shape"></path>
                        <path d="M2.96033136,11.8324268 L1.97355424,11.8324268 C1.70120375,11.8324268 1.48016568,11.6105688 1.48016568,11.339409 C1.48016568,11.0682492 1.70120375,10.8463912 1.97355424,10.8463912 L2.96033136,10.8463912 C3.23268184,10.8463912 3.45371992,11.0682492 3.45371992,11.339409 C3.45371992,11.6105688 3.23268184,11.8324268 2.96033136,11.8324268 L2.96033136,11.8324268 Z" id="Shape"></path>
                        <path d="M5.92066272,12.8184624 L4.9338856,12.8184624 C4.66153511,12.8184624 4.44049704,12.5966044 4.44049704,12.3254446 C4.44049704,12.0542848 4.66153511,11.8324268 4.9338856,11.8324268 L5.92066272,11.8324268 C6.1930132,11.8324268 6.41405128,12.0542848 6.41405128,12.3254446 C6.41405128,12.5966044 6.1930132,12.8184624 5.92066272,12.8184624 L5.92066272,12.8184624 Z" id="Shape"></path>
                        <path d="M22.6958738,14.7905335 L15.7884339,14.7905335 C15.5170702,14.7905335 15.2950454,14.5686755 15.2950454,14.2975157 C15.2950454,14.026356 15.5170702,13.8044979 15.7884339,13.8044979 L22.6958738,13.8044979 C22.9672375,13.8044979 23.1892623,14.026356 23.1892623,14.2975157 C23.1892623,14.5686755 22.9672375,14.7905335 22.6958738,14.7905335 L22.6958738,14.7905335 Z" id="Shape"></path>
                        <path d="M22.6958738,9.86035568 L15.7884339,9.86035568 C15.5170702,9.86035568 15.2950454,9.63849767 15.2950454,9.36733789 C15.2950454,9.09617811 15.5170702,8.87432011 15.7884339,8.87432011 L22.6958738,8.87432011 C22.9672375,8.87432011 23.1892623,9.09617811 23.1892623,9.36733789 C23.1892623,9.63849767 22.9672375,9.86035568 22.6958738,9.86035568 L22.6958738,9.86035568 Z" id="Shape"></path>
                        <path d="M13.8148797,0.986035568 L9.8677712,0.986035568 C9.59542071,0.986035568 9.37438264,0.764177565 9.37438264,0.493017784 C9.37438264,0.221858003 9.59542071,0 9.8677712,0 L13.8148797,0 C14.0862434,0 14.3082682,0.221858003 14.3082682,0.493017784 C14.3082682,0.764177565 14.0862434,0.986035568 13.8148797,0.986035568 L13.8148797,0.986035568 Z" id="Shape"></path>
                        <path d="M9.37438264,7.39526676 C9.10203215,7.39526676 8.88099408,7.17340876 8.88099408,6.90224897 L8.88099408,1.97207114 C8.88099408,1.70091135 9.10203215,1.47905335 9.37438264,1.47905335 C9.64673312,1.47905335 9.8677712,1.70091135 9.8677712,1.97207114 L9.8677712,6.90224897 C9.8677712,7.17340876 9.64673312,7.39526676 9.37438264,7.39526676 L9.37438264,7.39526676 Z" id="Shape"></path>
                        <path d="M11.3479369,3.45112449 C11.0755864,3.45112449 10.8545483,3.22926648 10.8545483,2.9581067 L10.8545483,1.97207114 C10.8545483,1.70091135 11.0755864,1.47905335 11.3479369,1.47905335 C11.6202874,1.47905335 11.8413254,1.70091135 11.8413254,1.97207114 L11.8413254,2.9581067 C11.8413254,3.22926648 11.6202874,3.45112449 11.3479369,3.45112449 L11.3479369,3.45112449 Z" id="Shape"></path>
                        <path d="M12.334714,7.39526676 C12.0623635,7.39526676 11.8413254,7.17340876 11.8413254,6.90224897 L11.8413254,5.91621341 C11.8413254,5.64505363 12.0623635,5.42319562 12.334714,5.42319562 C12.6060777,5.42319562 12.8281026,5.64505363 12.8281026,5.91621341 L12.8281026,6.90224897 C12.8281026,7.17340876 12.6060777,7.39526676 12.334714,7.39526676 L12.334714,7.39526676 Z" id="Shape"></path>
                        <path d="M14.3082682,6.40923119 C14.0369045,6.40923119 13.8148797,6.18737319 13.8148797,5.91621341 L13.8148797,1.97207114 C13.8148797,1.70091135 14.0369045,1.47905335 14.3082682,1.47905335 C14.5796319,1.47905335 14.8016568,1.70091135 14.8016568,1.97207114 L14.8016568,5.91621341 C14.8016568,6.18737319 14.5796319,6.40923119 14.3082682,6.40923119 L14.3082682,6.40923119 Z" id="Shape"></path>
                        <path d="M19.2421538,14.2975157 C18.9707901,14.2975157 18.7487653,14.0756577 18.7487653,13.8044979 L18.7487653,11.8324268 C18.7487653,11.561267 18.9707901,11.339409 19.2421538,11.339409 C19.5135175,11.339409 19.7355424,11.561267 19.7355424,11.8324268 L19.7355424,13.8044979 C19.7355424,14.0756577 19.5135175,14.2975157 19.2421538,14.2975157 L19.2421538,14.2975157 Z" id="Shape"></path>
                        <path d="M23.1892623,13.3114802 C22.9178986,13.3114802 22.6958738,13.0896222 22.6958738,12.8184624 L22.6958738,10.8463912 C22.6958738,10.5752315 22.9178986,10.3533735 23.1892623,10.3533735 C23.460626,10.3533735 23.6826509,10.5752315 23.6826509,10.8463912 L23.6826509,12.8184624 C23.6826509,13.0896222 23.460626,13.3114802 23.1892623,13.3114802 L23.1892623,13.3114802 Z" id="Shape"></path>
                        <path d="M15.2950454,13.3114802 C15.0236816,13.3114802 14.8016568,13.0896222 14.8016568,12.8184624 L14.8016568,10.8463912 C14.8016568,10.5752315 15.0236816,10.3533735 15.2950454,10.3533735 C15.5664091,10.3533735 15.7884339,10.5752315 15.7884339,10.8463912 L15.7884339,12.8184624 C15.7884339,13.0896222 15.5664091,13.3114802 15.2950454,13.3114802 L15.2950454,13.3114802 Z" id="Shape"></path>
                        <path d="M17.2685996,13.3114802 C16.9972359,13.3114802 16.775211,13.0896222 16.775211,12.8184624 L16.775211,10.8463912 C16.775211,10.5752315 16.9972359,10.3533735 17.2685996,10.3533735 C17.5399633,10.3533735 17.7619882,10.5752315 17.7619882,10.8463912 L17.7619882,12.8184624 C17.7619882,13.0896222 17.5399633,13.3114802 17.2685996,13.3114802 L17.2685996,13.3114802 Z" id="Shape"></path>
                        <path d="M9.37438264,14.2975157 C9.10203215,14.2975157 8.88099408,14.0756577 8.88099408,13.8044979 L8.88099408,8.87432011 C8.88099408,8.60316033 9.10203215,8.38130233 9.37438264,8.38130233 C9.64673312,8.38130233 9.8677712,8.60316033 9.8677712,8.87432011 L9.8677712,13.8044979 C9.8677712,14.0756577 9.64673312,14.2975157 9.37438264,14.2975157 L9.37438264,14.2975157 Z" id="Shape"></path>
                        <path d="M10.8545483,10.8463912 L9.8677712,10.8463912 C9.59542071,10.8463912 9.37438264,10.6245332 9.37438264,10.3533735 C9.37438264,10.0822137 9.59542071,9.86035568 9.8677712,9.86035568 L10.8545483,9.86035568 C11.1268988,9.86035568 11.3479369,10.0822137 11.3479369,10.3533735 C11.3479369,10.6245332 11.1268988,10.8463912 10.8545483,10.8463912 L10.8545483,10.8463912 Z" id="Shape"></path>
                        <path d="M13.3214911,14.2975157 C13.0501274,14.2975157 12.8281026,14.0756577 12.8281026,13.8044979 L12.8281026,8.87432011 C12.8281026,8.60316033 13.0501274,8.38130233 13.3214911,8.38130233 C13.5928548,8.38130233 13.8148797,8.60316033 13.8148797,8.87432011 L13.8148797,13.8044979 C13.8148797,14.0756577 13.5928548,14.2975157 13.3214911,14.2975157 L13.3214911,14.2975157 Z" id="Shape"></path>
                        <path d="M12.8281026,12.8184624 L11.8413254,12.8184624 C11.568975,12.8184624 11.3479369,12.5966044 11.3479369,12.3254446 C11.3479369,12.0542848 11.568975,11.8324268 11.8413254,11.8324268 L12.8281026,11.8324268 C13.0994663,11.8324268 13.3214911,12.0542848 13.3214911,12.3254446 C13.3214911,12.5966044 13.0994663,12.8184624 12.8281026,12.8184624 L12.8281026,12.8184624 Z" id="Shape"></path>
                    </g>
                    <path d="M39.4605597,76.139625 C39.1412808,75.7977976 38.753591,75.5186428 38.2974784,75.3021521 C37.8413658,75.0856614 37.3282468,74.9774177 36.7581061,74.9774177 C36.2335766,74.9774177 35.7717695,75.1312377 35.372671,75.4388824 C34.9735725,75.746527 34.7740262,76.1965929 34.7740262,76.7890937 C34.7740262,77.267652 34.9222606,77.6379595 35.2187338,77.9000271 C35.5152069,78.1620948 36.0283259,78.4754318 36.7581061,78.8400477 C37.2370243,79.0907211 37.69313,79.3641789 38.126437,79.6604293 C38.559744,79.9566797 38.9417325,80.2985019 39.2724142,80.6859063 C39.6030958,81.0733106 39.8710579,81.5176796 40.0763086,82.0190264 C40.2815593,82.5203732 40.384183,83.0786829 40.384183,83.6939721 C40.384183,84.8561852 40.1732341,85.8417727 39.75133,86.6507641 C39.3294258,87.4597556 38.7935016,88.1149149 38.1435411,88.6162617 C37.4935807,89.1176085 36.7695128,89.4765219 35.9713158,89.6930125 C35.1731187,89.9095032 34.397739,90.0177469 33.6451532,90.0177469 C32.4820661,90.0177469 31.3760096,89.8126536 30.3269506,89.4024607 C29.2778917,88.9922679 28.4226934,88.4453523 27.7613301,87.7616975 L30.5322003,84.5485363 C30.9427016,85.0043061 31.4159113,85.3746135 31.9518436,85.6594697 C32.4877759,85.9443258 33.0522068,86.0867518 33.6451532,86.0867518 C34.1924883,86.0867518 34.6713993,85.9272347 35.0819007,85.6081958 C35.492402,85.289157 35.6976496,84.833394 35.6976496,84.2408932 C35.6976496,83.7167579 35.492402,83.278086 35.0819007,82.9248644 C34.6713993,82.5716428 34.1012671,82.2127294 33.371487,81.8481135 C32.9153744,81.6430171 32.4934766,81.4037415 32.1057809,81.1302797 C31.7180852,80.8568178 31.3760058,80.5377837 31.0795327,80.1731678 C30.7830595,79.8085519 30.5493053,79.3926682 30.3782631,78.9255041 C30.2072208,78.45834 30.121701,77.9171215 30.121701,77.3018322 C30.121701,76.2079846 30.3326499,75.2679735 30.7545541,74.4817705 C31.1764582,73.6955675 31.7180838,73.0574993 32.3794471,72.5675468 C33.0408103,72.0775942 33.7762808,71.7186809 34.5858807,71.4907959 C35.3954805,71.262911 36.1879643,71.1489703 36.9633557,71.1489703 C38.0124147,71.1489703 38.9873407,71.3084873 39.8881631,71.6275262 C40.7889855,71.9465651 41.5130533,72.3681459 42.0603884,72.8922812 L39.4605597,76.139625 Z" id="s" fill="#76B9AD"></path>
                </g>
            </g>
        </g>
    </g>
</svg>